HIERARCHY
ROOT Hips
{
	OFFSET 0.000000 100.481300 0.000000
	CHANNELS 6 Xposition Yposition Zposition Xrotation Yrotation Zrotation
	JOINT Spine
	{
		OFFSET -0.279200 12.230698 -2.892100
		CHANNELS 3 Xrotation Yrotation Zrotation
		JOINT Spine1
		{
			OFFSET -0.325700 14.269203 -3.374200
			CHANNELS 3 Xrotation Yrotation Zrotation
			JOINT Spine2
			{
				OFFSET -0.372300 16.307602 -0.352600
				CHANNELS 3 Xrotation Yrotation Zrotation
				JOINT Neck
				{
					OFFSET -0.418800 17.814194 8.416900
					CHANNELS 3 Xrotation Yrotation Zrotation
					JOINT Head
					{
						OFFSET 0.000000 7.031097 3.806800
						CHANNELS 3 Xrotation Yrotation Zrotation
						JOINT HeadTop_End
						{
							OFFSET 0.000000 24.646606 12.978600
							CHANNELS 3 Xrotation Yrotation Zrotation
							End Site
							{
								OFFSET 0.000000 27.854965 0.000000
							}
						}
					}
				}
				JOINT LeftShoulder
				{
					OFFSET 16.952999 14.495407 -7.737500
					CHANNELS 3 Xrotation Yrotation Zrotation
					JOINT LeftArm
					{
						OFFSET 9.308998 -2.777710 0.208600
						CHANNELS 3 Xrotation Yrotation Zrotation
						JOINT LeftForeArm
						{
							OFFSET 29.972298 0.000000 0.000000
							CHANNELS 3 Xrotation Yrotation Zrotation
							JOINT LeftHand
							{
								OFFSET 26.026505 0.000000 0.000000
								CHANNELS 3 Xrotation Yrotation Zrotation
								JOINT LeftHandThumb1
								{
									OFFSET 12.240501 -7.147949 9.207150
									CHANNELS 3 Xrotation Yrotation Zrotation
									JOINT LeftHandThumb2
									{
										OFFSET 4.138618 -2.389435 2.389433
										CHANNELS 3 Xrotation Yrotation Zrotation
										JOINT LeftHandThumb3
										{
											OFFSET 2.726913 -1.574387 1.574386
											CHANNELS 3 Xrotation Yrotation Zrotation
											JOINT LeftHandThumb4
											{
												OFFSET 3.941010 -2.275345 2.275342
												CHANNELS 3 Xrotation Yrotation Zrotation
												End Site
												{
													OFFSET -0.005798 5.087799 0.009903
												}
											}
										}
									}
								}
								JOINT LeftHandIndex1
								{
									OFFSET 24.424698 -1.985611 5.953459
									CHANNELS 3 Xrotation Yrotation Zrotation
									JOINT LeftHandIndex2
									{
										OFFSET 6.426697 0.000000 0.000000
										CHANNELS 3 Xrotation Yrotation Zrotation
										JOINT LeftHandIndex3
										{
											OFFSET 5.337898 0.000000 0.000000
											CHANNELS 3 Xrotation Yrotation Zrotation
											JOINT LeftHandIndex4
											{
												OFFSET 4.409401 0.000000 0.000000
												CHANNELS 3 Xrotation Yrotation Zrotation
												End Site
												{
													OFFSET 0.000000 4.409363 0.014373
												}
											}
										}
									}
								}
								JOINT LeftHandMiddle1
								{
									OFFSET 23.810104 0.000000 0.000000
									CHANNELS 3 Xrotation Yrotation Zrotation
									JOINT LeftHandMiddle2
									{
										OFFSET 7.176498 0.000000 0.000000
										CHANNELS 3 Xrotation Yrotation Zrotation
										JOINT LeftHandMiddle3
										{
											OFFSET 6.774902 0.000000 0.000000
											CHANNELS 3 Xrotation Yrotation Zrotation
											JOINT LeftHandMiddle4
											{
												OFFSET 5.403328 0.000000 0.000000
												CHANNELS 3 Xrotation Yrotation Zrotation
												End Site
												{
													OFFSET -0.027702 5.403244 0.017414
												}
											}
										}
									}
								}
								JOINT LeftHandRing1
								{
									OFFSET 22.908401 -0.839279 -6.020567
									CHANNELS 3 Xrotation Yrotation Zrotation
									JOINT LeftHandRing2
									{
										OFFSET 6.337502 0.000000 0.000000
										CHANNELS 3 Xrotation Yrotation Zrotation
										JOINT LeftHandRing3
										{
											OFFSET 5.779297 0.000000 0.000000
											CHANNELS 3 Xrotation Yrotation Zrotation
											JOINT LeftHandRing4
											{
												OFFSET 4.965698 0.000000 0.000000
												CHANNELS 3 Xrotation Yrotation Zrotation
												End Site
												{
													OFFSET 0.000000 4.965668 0.016186
												}
											}
										}
									}
								}
								JOINT LeftHandPinky1
								{
									OFFSET 20.037003 -1.530319 -10.950146
									CHANNELS 3 Xrotation Yrotation Zrotation
									JOINT LeftHandPinky2
									{
										OFFSET 5.254700 0.000000 0.000000
										CHANNELS 3 Xrotation Yrotation Zrotation
										JOINT LeftHandPinky3
										{
											OFFSET 4.810204 0.000000 0.000000
											CHANNELS 3 Xrotation Yrotation Zrotation
											JOINT LeftHandPinky4
											{
												OFFSET 3.647202 0.000000 0.000000
												CHANNELS 3 Xrotation Yrotation Zrotation
												End Site
												{
													OFFSET 0.000000 3.647186 0.011889
												}
											}
										}
									}
								}
							}
						}
					}
				}
				JOINT RightShoulder
				{
					OFFSET -15.141001 14.495407 -7.737500
					CHANNELS 3 Xrotation Yrotation Zrotation
					JOINT RightArm
					{
						OFFSET -9.308998 -2.777710 0.208500
						CHANNELS 3 Xrotation Yrotation Zrotation
						JOINT RightForeArm
						{
							OFFSET -29.972300 0.000000 0.000000
							CHANNELS 3 Xrotation Yrotation Zrotation
							JOINT RightHand
							{
								OFFSET -26.026505 0.000000 0.000000
								CHANNELS 3 Xrotation Yrotation Zrotation
								JOINT RightHandThumb1
								{
									OFFSET -12.240601 -7.148026 9.207092
									CHANNELS 3 Xrotation Yrotation Zrotation
									JOINT RightHandThumb2
									{
										OFFSET -4.138618 -2.389435 2.389433
										CHANNELS 3 Xrotation Yrotation Zrotation
										JOINT RightHandThumb3
										{
											OFFSET -2.726974 -1.574417 1.574421
											CHANNELS 3 Xrotation Yrotation Zrotation
											JOINT RightHandThumb4
											{
												OFFSET -3.941010 -2.275345 2.275343
												CHANNELS 3 Xrotation Yrotation Zrotation
												End Site
												{
													OFFSET 0.005814 5.087799 0.009927
												}
											}
										}
									}
								}
								JOINT RightHandIndex1
								{
									OFFSET -24.424698 -1.985657 5.953444
									CHANNELS 3 Xrotation Yrotation Zrotation
									JOINT RightHandIndex2
									{
										OFFSET -6.426697 0.000000 0.000000
										CHANNELS 3 Xrotation Yrotation Zrotation
										JOINT RightHandIndex3
										{
											OFFSET -5.337898 0.000000 0.000000
											CHANNELS 3 Xrotation Yrotation Zrotation
											JOINT RightHandIndex4
											{
												OFFSET -4.409401 0.000000 0.000000
												CHANNELS 3 Xrotation Yrotation Zrotation
												End Site
												{
													OFFSET 0.000000 4.409363 0.014408
												}
											}
										}
									}
								}
								JOINT RightHandMiddle1
								{
									OFFSET -23.810097 0.000000 0.000000
									CHANNELS 3 Xrotation Yrotation Zrotation
									JOINT RightHandMiddle2
									{
										OFFSET -7.176498 0.000000 0.000000
										CHANNELS 3 Xrotation Yrotation Zrotation
										JOINT RightHandMiddle3
										{
											OFFSET -6.774902 0.000000 0.000000
											CHANNELS 3 Xrotation Yrotation Zrotation
											JOINT RightHandMiddle4
											{
												OFFSET -5.403328 0.000000 0.000000
												CHANNELS 3 Xrotation Yrotation Zrotation
												End Site
												{
													OFFSET 0.027702 5.403244 0.017457
												}
											}
										}
									}
								}
								JOINT RightHandRing1
								{
									OFFSET -22.908302 -0.839325 -6.020576
									CHANNELS 3 Xrotation Yrotation Zrotation
									JOINT RightHandRing2
									{
										OFFSET -6.337502 0.000000 0.000000
										CHANNELS 3 Xrotation Yrotation Zrotation
										JOINT RightHandRing3
										{
											OFFSET -5.779297 0.000000 0.000000
											CHANNELS 3 Xrotation Yrotation Zrotation
											JOINT RightHandRing4
											{
												OFFSET -4.965698 0.000000 0.000000
												CHANNELS 3 Xrotation Yrotation Zrotation
												End Site
												{
													OFFSET 0.000000 4.965668 0.016226
												}
											}
										}
									}
								}
								JOINT RightHandPinky1
								{
									OFFSET -20.037003 -1.530334 -10.950259
									CHANNELS 3 Xrotation Yrotation Zrotation
									JOINT RightHandPinky2
									{
										OFFSET -5.254700 0.000000 0.000000
										CHANNELS 3 Xrotation Yrotation Zrotation
										JOINT RightHandPinky3
										{
											OFFSET -4.810204 0.000000 0.000000
											CHANNELS 3 Xrotation Yrotation Zrotation
											JOINT RightHandPinky4
											{
												OFFSET -3.647202 0.000000 0.000000
												CHANNELS 3 Xrotation Yrotation Zrotation
												End Site
												{
													OFFSET 0.000000 3.647186 0.011917
												}
											}
										}
									}
								}
							}
						}
					}
				}
			}
		}
	}
	JOINT LeftUpLeg
	{
		OFFSET 15.427100 -6.655098 0.678600
		CHANNELS 3 Xrotation Yrotation Zrotation
		JOINT LeftLeg
		{
			OFFSET 4.081073 -39.591068 13.024000
			CHANNELS 3 Xrotation Yrotation Zrotation
			JOINT LeftFoot
			{
				OFFSET -4.081074 -37.707932 -15.979700
				CHANNELS 3 Xrotation Yrotation Zrotation
				JOINT LeftToeBase
				{
					OFFSET 5.346399 -15.068900 20.645000
					CHANNELS 3 Xrotation Yrotation Zrotation
					JOINT LeftToe_End
					{
						OFFSET 2.754700 0.931300 11.300900
						CHANNELS 3 Xrotation Yrotation Zrotation
						End Site
						{
							OFFSET 0.000000 11.669021 0.000000
						}
					}
				}
			}
		}
	}
	JOINT RightUpLeg
	{
		OFFSET -15.569500 -6.655098 0.678600
		CHANNELS 3 Xrotation Yrotation Zrotation
		JOINT RightLeg
		{
			OFFSET -4.081825 -39.591045 13.023800
			CHANNELS 3 Xrotation Yrotation Zrotation
			JOINT RightFoot
			{
				OFFSET 4.081824 -37.707954 -15.979600
				CHANNELS 3 Xrotation Yrotation Zrotation
				JOINT RightToeBase
				{
					OFFSET -5.346400 -15.068900 20.645000
					CHANNELS 3 Xrotation Yrotation Zrotation
					JOINT RightToe_End
					{
						OFFSET -2.754700 0.931300 11.300900
						CHANNELS 3 Xrotation Yrotation Zrotation
						End Site
						{
							OFFSET 0.000000 11.669021 0.000000
						}
					}
				}
			}
		}
	}
}
MOTION
Frames: 4
Frame Time: 0.033333
-1.911923 64.729042 -1.077366 16.263702 11.295224 4.074496 11.289218 -17.227883 10.278073 2.869511 -4.087947 0.126408 2.861604 -4.312287 0.311443 -0.688860 2.356470 -4.369685 -6.951127 9.321998 -11.106341 -0.000001 0.000000 -0.000000 2.870233 -11.956916 6.160426 -33.800236 -70.871703 -6.930127 -0.000360 -94.709555 -0.000369 15.904411 -20.838173 11.426089 -14.374019 -24.771115 -3.357604 9.923734 43.708669 4.993753 -9.010176 -8.994450 12.231809 0.000001 -0.000000 -0.000003 0.625895 5.223520 -14.495943 0.212945 1.566686 -15.479606 0.212813 1.566219 -15.474960 0.000000 0.000000 -0.000002 1.835607 6.790024 -33.465239 1.023789 3.310336 -34.362456 1.141455 3.475892 -36.350400 -0.000000 0.000001 -0.000000 2.757894 7.484218 -44.479845 1.527754 3.946339 -42.313189 1.667301 4.094009 -44.303592 0.000001 -0.000000 0.000001 3.715895 7.975964 -54.773841 2.215608 4.587678 -51.538002 2.214911 4.587118 -51.529191 0.000000 -0.000005 -0.000000 1.124720 1.331168 15.116532 -9.590818 -31.513212 40.008424 0.000000 10.721316 0.000005 16.783629 19.030292 -20.612608 -6.380091 8.760734 -2.634951 8.233952 -29.439068 -1.700656 -7.568548 8.340471 -10.032336 -0.000001 0.000003 -0.000003 -1.791214 6.483436 11.714593 0.189242 -1.315429 16.372469 0.199577 -1.350086 16.816605 -0.000000 -0.000000 -0.000000 -1.298709 1.214692 17.888079 0.309496 -1.671014 20.984576 0.372131 -1.825902 23.037345 -0.000000 0.000002 0.000002 -0.118577 -2.982249 25.427667 0.400603 -1.891406 23.914997 0.468780 -2.038158 25.903622 0.000002 0.000001 -0.000001 -0.007773 -3.573855 32.441428 0.622452 -2.327940 29.936104 0.622142 -2.327390 29.928325 0.000001 -0.000001 0.000002 26.064688 5.835168 -4.475313 33.948923 6.452002 -11.584708 -38.365319 19.890399 -14.074233 -42.282392 -0.000008 0.000006 -0.000001 -0.000000 -0.000001 -88.378734 2.003267 -2.751786 44.375053 -11.645578 -0.213393 21.278355 -26.701340 -10.779499 -4.481353 -0.000016 -0.000000 -0.000000 -0.000002 -0.000000 
-2.188459 62.115524 -2.355814 17.613851 10.437298 1.467548 10.318809 -16.802467 9.829977 3.775887 -4.898511 0.765971 3.766617 -5.085910 0.927070 -1.319501 2.635410 -3.765374 -7.383318 10.613395 -8.167264 0.000000 -0.000000 -0.000000 2.734483 -10.848876 8.814595 -43.388879 -75.954962 -17.545060 -0.000280 -93.325376 -0.000261 21.835029 -23.095279 17.282761 -12.869107 -22.090469 -1.897423 9.332655 39.081851 4.566246 -8.736527 -7.723932 12.387205 0.000001 0.000001 0.000003 0.495067 4.856133 -12.796655 0.154554 1.338140 -13.176260 0.154463 1.337752 -13.172290 0.000003 0.000001 -0.000001 1.392883 6.267196 -28.924632 0.747774 2.865870 -29.242441 0.834528 3.015379 -30.933210 -0.000001 -0.000001 0.000001 2.089185 6.948042 -38.284201 1.120542 3.447334 -36.003908 1.224342 3.585590 -37.696268 -0.000000 0.000001 -0.000001 2.820984 7.485469 -47.029988 1.634831 4.060551 -43.846679 1.634286 4.059998 -43.839170 -0.000001 -0.000002 0.000001 1.041694 2.895394 15.880282 -5.936689 -31.823357 43.116013 -0.000010 6.168897 -0.000003 16.674064 22.155757 -22.493382 -6.258151 8.048600 -3.078619 8.053513 -27.885612 -1.825710 -7.073211 5.629859 -10.928563 -0.000000 0.000002 -0.000002 -1.315592 5.097012 11.408830 0.159822 -1.210829 15.037992 0.167904 -1.240548 15.416049 0.000000 -0.000001 0.000000 -1.007489 0.600765 16.680017 0.253453 -1.516916 18.970145 0.301556 -1.650217 20.710834 -0.000001 -0.000001 -0.000001 -0.058898 -2.983550 23.107186 0.323454 -1.706960 21.458286 0.375743 -1.834356 23.150241 -0.000001 0.000002 -0.000000 0.028721 -3.482341 29.077761 0.493229 -2.087698 26.582492 0.492965 -2.087170 26.575320 -0.000000 0.000001 -0.000001 23.189870 8.909275 -2.916213 37.764393 -1.103166 -11.185969 -45.169649 19.329125 -9.960359 -38.940650 0.000010 0.000003 0.000000 -0.000005 -0.000000 -92.623806 2.676102 -1.633421 46.703478 -15.525906 0.799822 20.601077 -24.029871 -10.062652 -2.299212 -0.000008 0.000002 -0.000000 -0.000001 -0.000000 
-1.359908 60.704720 -2.083443 20.661122 8.227765 -1.828481 8.880551 -15.666241 9.982446 3.970383 -5.650818 2.537896 3.954358 -5.804722 2.668547 -0.910207 2.909757 -3.815231 -6.788643 11.759531 -7.312322 0.000001 -0.000000 -0.000000 2.950302 -12.736162 11.173715 -52.597712 -76.641382 -26.403189 -0.000423 -85.629296 -0.000399 28.206318 -24.558095 26.044935 -11.277537 -18.978714 -0.363290 8.673423 33.793444 4.023518 -8.434577 -6.269125 12.555944 0.000000 -0.000001 -0.000002 0.366746 4.429879 -10.856213 0.099110 1.074203 -10.543065 0.099056 1.073884 -10.539899 0.000001 0.000001 -0.000000 0.958712 5.619755 -23.744891 0.482416 2.329899 -23.393017 0.538858 2.456173 -24.744787 -0.000000 -0.000000 0.000001 1.425386 6.235490 -31.219121 0.725709 2.826144 -28.798130 0.793825 2.946501 -30.150688 0.000002 -0.000001 -0.000000 1.917590 6.760733 -38.200234 1.064739 3.369339 -35.065296 1.064381 3.368833 -35.059327 0.000003 -0.000001 0.000001 0.837211 5.917134 17.366442 -4.593467 -34.742485 42.242220 -0.000008 2.586870 -0.000022 11.612753 22.914381 -26.699093 -6.131636 7.244484 -3.577040 7.838219 -26.096999 -1.965406 -6.556606 2.535846 -11.918768 -0.000002 -0.000001 -0.000000 -0.854423 3.493791 11.051856 0.128773 -1.088715 13.490570 0.134590 -1.112667 13.793070 -0.000000 -0.000002 -0.000000 -0.707549 -0.112960 15.282074 0.195436 -1.336335 16.640357 0.229140 -1.444316 18.029398 -0.000001 -0.000003 -0.000001 -0.000800 -2.990469 20.431618 0.244459 -1.490516 18.627671 0.280900 -1.594506 19.981003 -0.000001 -0.000001 -0.000002 0.062947 -3.386089 25.209294 0.362299 -1.802637 22.726961 0.362115 -1.802186 22.720981 0.000001 0.000001 -0.000004 20.749845 12.380269 -2.465257 37.698157 -6.871316 -10.403357 -49.270792 18.376399 -5.732836 -35.923237 0.000001 -0.000003 0.000000 0.000001 0.000000 -96.856297 2.622674 -0.516312 48.856528 -18.731936 2.060853 19.447102 -20.526868 -8.132704 -0.572454 0.000002 -0.000004 0.000000 0.000001 0.000000 
0.393690 60.647507 0.024029 25.860112 3.565431 -5.036251 7.214101 -13.642362 10.633681 3.793229 -6.267401 4.985027 3.761047 -6.400550 5.076529 -0.844527 3.433778 -3.874686 -5.554950 14.190888 -7.102115 -0.000001 -0.000000 0.000000 2.926419 -12.942806 12.430547 -64.269170 -75.723917 -36.412234 -0.000001 -74.360174 0.000004 36.121602 -27.263100 35.632240 -9.749620 -15.690362 1.097693 7.991664 28.286839 3.403432 -8.131923 -4.751238 12.722226 0.000000 0.000000 -0.000000 0.257422 3.979920 -8.837281 0.054334 0.796840 -7.800262 0.054287 0.796578 -7.797916 0.000002 -0.000003 -0.000000 0.593277 4.898231 -18.361522 0.265678 1.745864 -17.303845 0.296972 1.843287 -18.303240 -0.000001 -0.000001 0.000001 0.862383 5.398082 -23.880428 0.400912 2.131802 -21.299475 0.438937 2.226761 -22.299132 -0.000000 -0.000001 -0.000001 1.141855 5.846860 -29.032139 0.590820 2.565773 -25.930685 0.590619 2.565391 -25.926266 -0.000002 -0.000000 -0.000000 0.408763 10.045387 19.018351 -5.072503 -37.659839 39.459017 0.000009 1.912968 0.000004 2.669031 20.796287 -31.228731 -6.001683 6.375485 -4.102126 7.607650 -24.266199 -2.109784 -6.065006 -0.725709 -12.927391 -0.000003 -0.000003 0.000002 -0.466373 1.800819 10.743193 0.100777 -0.964671 11.928995 0.104597 -0.982503 12.152790 -0.000000 -0.000003 -0.000002 -0.435944 -0.874341 13.880171 0.143801 -1.149571 14.260313 0.165119 -1.230374 15.286822 -0.000005 -0.000002 -0.000002 0.048467 -3.008679 17.693962 0.174767 -1.265126 15.729456 0.197547 -1.343365 16.730478 -0.000000 -0.000000 -0.000002 0.090148 -3.299541 21.228805 0.247960 -1.500864 18.761722 0.247847 -1.500509 18.757212 0.000001 -0.000002 -0.000001 17.210832 16.940437 -3.145563 35.699654 -12.011098 -9.858891 -48.118973 19.667543 -1.869753 -35.741253 0.000022 0.000001 0.000000 0.000000 -0.000000 -101.350582 1.014089 1.683877 50.308288 -20.056033 3.478828 16.593719 -17.214387 -6.440105 0.823655 -0.000015 -0.000005 -0.000000 0.000000 0.000000 
